<svg width="63" height="90" viewBox="0 0 63 90" fill="none" xmlns="http://www.w3.org/2000/svg">
<path d="M10.4793 46.8753H5.35425V41.7502L10.4793 46.8753Z" fill="#F1EBEE"/>
<path d="M18.5331 46.8753L8.28288 36.6251H16.3366L26.5868 46.8753H18.5331Z" fill="#F1EBEE"/>
<path d="M34.6405 46.8753L23.6582 36.6251H31.7119L42.6943 46.8753H34.6405Z" fill="#F1EBEE"/>
<path d="M50.3803 46.8753L40.4978 36.6251H47.8194L58.8017 46.8753H50.3803Z" fill="#F1EBEE"/>
<path d="M61.7303 42.4824L55.8731 36.6251H61.7303V42.4824Z" fill="#F1EBEE"/>
<path fill-rule="evenodd" clip-rule="evenodd" d="M6.51546 35.8932H16.64L28.3545 47.6077H18.23L6.51546 35.8932ZM10.0506 37.3575L18.8365 46.1434H24.8194L16.0335 37.3575H10.0506ZM21.8008 35.8932H32.0007L44.5519 47.6077H34.3521L21.8008 35.8932ZM25.5158 37.3575L34.9293 46.1434H40.8369L31.4235 37.3575H25.5158ZM38.775 35.8932H48.1081L60.6594 47.6077H50.0694L38.775 35.8932ZM42.2209 37.3575L50.6916 46.1434H56.9444L47.5309 37.3575H42.2209ZM54.1057 35.8932H62.4627V44.2502L54.1057 35.8932ZM57.6408 37.3575L60.9983 40.715V37.3575H57.6408ZM4.62225 39.9829L12.2471 47.6077H4.62225V39.9829ZM6.08657 43.518V46.1434H8.71193L6.08657 43.518Z" fill="#F1EBEE"/>
<path d="M6.08643 22.7144L0.961334 24.9108L3.15781 30.0359L6.08643 22.7144Z" fill="#F1EBEE"/>
<path d="M15.6045 29.3038L8.28291 32.9646L13.408 19.0536L19.9974 15.3928L15.6045 29.3038Z" fill="#F1EBEE"/>
<path d="M30.2476 21.9822L22.926 25.643L27.319 11.732L34.6406 8.07123L30.2476 21.9822Z" fill="#F1EBEE"/>
<path d="M44.1586 15.3928L37.5692 18.3214L41.9621 5.1426L49.2837 1.48181L44.1586 15.3928Z" fill="#F1EBEE"/>
<path d="M56.6053 9.53554L51.4802 11.732L54.4088 5.1426L56.6053 9.53554Z" fill="#F1EBEE"/>
<path fill-rule="evenodd" clip-rule="evenodd" d="M50.6099 0L44.7387 15.936L36.3497 19.6645L41.3635 4.62319L50.6099 0ZM42.5609 5.66166L38.7887 16.978L43.5786 14.8492L47.9576 2.96329L42.5609 5.66166ZM54.3699 3.42736L57.6074 9.90246L50.0531 13.14L54.3699 3.42736ZM54.4478 6.8575L52.9073 10.3237L55.6032 9.16829L54.4478 6.8575ZM35.8593 6.64312L30.8524 22.4982L21.7074 27.0708L26.7142 11.2157L35.8593 6.64312ZM27.9238 12.248L24.1448 24.2149L29.6429 21.4659L33.4219 9.499L27.9238 12.248ZM21.2494 13.8596L16.2093 29.8198L6.95681 34.446L12.815 18.5453L21.2494 13.8596ZM14.0011 19.5615L9.60908 31.4828L14.9997 28.7874L18.7455 16.9257L14.0011 19.5615ZM7.42272 21.345L3.18117 31.9488L0 24.5261L7.42272 21.345ZM1.92274 25.2952L3.13451 28.1227L4.75021 24.0834L1.92274 25.2952Z" fill="#F1EBEE"/>
<path d="M3.88998 68.8402H62.4625V73.2332H3.88998V68.8402Z" fill="#F1EBEE"/>
<path d="M52.7678 65.9116V53.1321H61.6784V55.6405H55.8565V58.2613H61.2229V60.7761H55.8565V63.4031H61.6784V65.9116H52.7678Z" fill="#F1EBEE"/>
<path d="M50.8286 53.1321V65.9116H47.7398V53.1321H50.8286Z" fill="#F1EBEE"/>
<path d="M37.0851 53.1321L39.943 62.492H40.0491L42.907 53.1321H46.3639L42.0521 65.9116H37.94L33.6281 53.1321H37.0851Z" fill="#F1EBEE"/>
<path d="M33.1352 59.5219C33.1352 60.9279 32.8648 62.1198 32.324 63.0974C31.7832 64.075 31.0511 64.8175 30.1275 65.325C29.2082 65.8325 28.1765 66.0863 27.0325 66.0863C25.8844 66.0863 24.8506 65.8305 23.9313 65.3188C23.0119 64.8071 22.2818 64.0646 21.741 63.0911C21.2044 62.1135 20.9361 60.9238 20.9361 59.5219C20.9361 58.1158 21.2044 56.9239 21.741 55.9463C22.2818 54.9687 23.0119 54.2262 23.9313 53.7187C24.8506 53.2112 25.8844 52.9574 27.0325 52.9574C28.1765 52.9574 29.2082 53.2112 30.1275 53.7187C31.0511 54.2262 31.7832 54.9687 32.324 55.9463C32.8648 56.9239 33.1352 58.1158 33.1352 59.5219ZM29.9778 59.5219C29.9778 58.6899 29.8592 57.9868 29.6221 57.4127C29.3892 56.8387 29.0522 56.4039 28.6112 56.1086C28.1744 55.8132 27.6482 55.6655 27.0325 55.6655C26.421 55.6655 25.8948 55.8132 25.4538 56.1086C25.0129 56.4039 24.6738 56.8387 24.4367 57.4127C24.2037 57.9868 24.0873 58.6899 24.0873 59.5219C24.0873 60.3538 24.2037 61.0569 24.4367 61.631C24.6738 62.205 25.0129 62.6398 25.4538 62.9351C25.8948 63.2305 26.421 63.3782 27.0325 63.3782C27.6482 63.3782 28.1744 63.2305 28.6112 62.9351C29.0522 62.6398 29.3892 62.205 29.6221 61.631C29.8592 61.0569 29.9778 60.3538 29.9778 59.5219Z" fill="#F1EBEE"/>
<path d="M4.85724 53.1321H8.68234L11.9271 61.0444H12.0769L15.3217 53.1321H19.1468V65.9116H16.1391V58.0617H16.033L12.963 65.8304H11.0411L7.97099 58.018H7.86491V65.9116H4.85724V53.1321Z" fill="#F1EBEE"/>
<path d="M50.5354 76.561H53.9861L56.688 81.9087H56.8003L59.5022 76.561H62.9529L58.2792 85.0724V89.3405H55.2091V85.0724L50.5354 76.561Z" fill="#F1EBEE"/>
<path d="M40.1038 89.3405V76.561H45.3828C46.3396 76.561 47.1653 76.7337 47.86 77.079C48.5589 77.4201 49.0976 77.9109 49.4762 78.5516C49.8548 79.1881 50.044 79.9431 50.044 80.8167C50.044 81.7028 49.8506 82.4557 49.4637 83.0756C49.0768 83.6912 48.5277 84.1613 47.8164 84.4858C47.105 84.8061 46.2626 84.9663 45.2892 84.9663H41.9508V82.5327H44.7151C45.181 82.5327 45.57 82.4724 45.882 82.3517C46.1981 82.2269 46.4373 82.0397 46.5996 81.7901C46.7618 81.5364 46.8429 81.2119 46.8429 80.8167C46.8429 80.4215 46.7618 80.0949 46.5996 79.837C46.4373 79.5749 46.1981 79.3794 45.882 79.2505C45.5658 79.1173 45.1769 79.0508 44.7151 79.0508H43.1925V89.3405H40.1038ZM47.2985 83.4999L50.4808 89.3405H47.1113L43.9913 83.4999H47.2985Z" fill="#F1EBEE"/>
<path d="M29.2585 89.3405V76.561H38.1692V79.0695H32.3473V81.6903H37.7137V84.205H32.3473V86.832H38.1692V89.3405H29.2585Z" fill="#F1EBEE"/>
<path d="M18.6041 76.561L21.462 85.921H21.5681L24.426 76.561H27.8829L23.5711 89.3405H19.4589L15.1471 76.561H18.6041Z" fill="#F1EBEE"/>
<path d="M4.85718 89.3405V76.561H13.7679V79.0695H7.94597V81.6903H13.3123V84.205H7.94597V86.832H13.7679V89.3405H4.85718Z" fill="#F1EBEE"/>
</svg>
